<svg width="119" height="20" viewBox="0 0 119 20" fill="none" xmlns="http://www.w3.org/2000/svg">
<path id="Union" fill-rule="evenodd" clip-rule="evenodd" d="M19.874 13.3377L19.8743 13.3377C20.2361 18.0902 24.3248 18.6422 24.3248 18.6422V18.8152H19.1041V13.326C18.4829 15.2303 17.1571 16.7288 15.13 17.8281C13.0706 18.9416 10.6476 19.5 7.86097 19.5C5.89334 19.5 4.23836 19.0642 2.89263 18.1993C1.54689 17.331 0.874023 16.0167 0.874023 14.2597C0.874023 11.0011 3.32081 9.37007 8.21439 9.37007H19.0312C18.4705 4.98441 15.6941 2.79158 10.7088 2.79158C6.3759 2.79158 3.5553 4.23531 2.24694 7.11936L1.9309 6.83674C2.58678 4.74946 3.70482 3.17294 5.28504 2.10376C6.86186 1.03459 8.75133 0.5 10.9534 0.5C13.808 0.5 16.0101 1.33763 17.5564 3.01631C19.1026 4.69498 19.874 7.13979 19.874 10.3541V13.3377ZM19.1332 13.2554V13.2348L19.127 13.2547L19.1332 13.2554ZM15.9422 15.5434C13.8114 16.6602 11.1437 17.2152 7.93573 17.2152L7.93233 17.2186C6.92643 17.2186 6.01228 17.1233 5.19329 16.936C4.37429 16.7487 3.64026 16.3674 2.99797 15.7919C2.35569 15.2165 2.03285 14.4844 2.03285 13.5923C2.03285 11.1986 4.07864 10.0034 8.17701 10.0034H19.1026C19.123 10.2384 19.1366 10.5891 19.1366 11.059C19.1366 12.9351 18.0729 14.4299 15.9422 15.5434ZM39.183 0.5C40.7073 0.5 42.4289 0.759066 44.3512 1.27379V6.98007H44.0688C44.0688 5.45294 43.487 4.29737 42.3268 3.50994C41.1666 2.72252 39.741 2.33051 38.0534 2.33051C34.4197 2.33051 31.7965 4.36214 30.177 8.42539V13.6374C30.4356 16.4803 31.9122 18.1472 34.6069 18.6381V18.8153H25.0088V18.6381C27.9859 18.0995 29.4727 16.1599 29.4727 12.8261V7.19141C29.4727 3.85764 27.9859 1.92146 25.0088 1.37946V1.20221H30.177V6.80622H30.2825C31.0786 4.59734 32.1878 2.99522 33.6066 1.99645C35.0253 0.99768 36.883 0.5 39.1796 0.5H39.183ZM68.8193 1.19152V12.8089C68.8193 16.1409 70.3049 18.0794 73.2794 18.6176V18.7948H68.1156V13.1973H67.9048C66.0793 17.398 62.9993 19.5 58.6649 19.5C55.8059 19.5 53.6404 18.6688 52.165 16.9994C50.6896 15.3334 49.9519 12.8805 49.9519 9.64055V7.17739C49.9519 5.43989 49.5134 4.09758 48.6363 3.14706C47.7592 2.19655 46.5558 1.60375 45.0362 1.36868V1.19152H50.693V8.93533C50.693 14.451 53.3514 17.2072 58.6683 17.2072C63.1421 17.2072 66.29 15.3198 68.119 11.5382V6.39722C67.9796 4.91863 67.4799 3.77052 66.6266 2.94606C65.7699 2.125 64.6413 1.59694 63.2373 1.36187V1.18471H68.8227L68.8193 1.19152ZM73.9642 17.2493C76.4267 18.7509 79.5261 19.5 83.2556 19.5C86.4947 19.5 89.0934 18.9927 91.0519 17.9712C93.0103 16.9531 93.9912 15.54 93.9912 13.7319C93.9912 13.0747 93.8516 12.5129 93.5689 12.043C93.2862 11.5731 92.9115 11.1918 92.4415 10.8989C91.9715 10.6061 91.2937 10.3609 90.4013 10.16C89.509 9.96255 88.6064 9.80932 87.6902 9.70377C86.774 9.59821 85.5785 9.48925 84.1003 9.37007C80.8136 9.13513 78.5316 8.78782 77.2543 8.33154C75.9771 7.87527 75.3368 7.10574 75.3368 6.02635C75.3368 3.63262 78.0343 2.43746 83.4327 2.43746C88.2658 2.43746 91.4436 3.50323 92.9694 5.63817H93.1465V2.4C90.6568 1.13333 87.5369 0.5 83.7835 0.5C80.708 0.5 78.3306 0.932437 76.6549 1.80072C74.9757 2.669 74.1379 3.9595 74.1379 5.67222C74.1379 6.72778 74.5193 7.56882 75.2823 8.18853C76.0452 8.81165 77.0942 9.25771 78.4328 9.5267C79.7713 9.7957 81.6242 10.0034 83.9947 10.143C87.3019 10.3541 89.5907 10.6878 90.8577 11.1441C92.1247 11.6004 92.7582 12.4176 92.7582 13.5889C92.7582 16.2414 89.7917 17.566 83.8551 17.566C79.0459 17.566 75.8068 16.5002 74.1413 14.3652H73.9642V17.2493ZM118.126 18.6422C118.126 18.6422 114.04 18.0905 113.676 13.3418V10.3541C113.676 7.13979 112.905 4.69498 111.358 3.01631C109.812 1.33763 107.61 0.5 104.755 0.5C102.553 0.5 100.664 1.03459 99.0871 2.10376C97.5069 3.17294 96.3888 4.74946 95.7329 6.83674L96.049 7.11936C97.3573 4.23531 100.178 2.79158 104.511 2.79158C109.496 2.79158 112.273 4.98441 112.833 9.37007H102.016C97.1228 9.37007 94.676 11.0011 94.676 14.2597C94.676 16.0167 95.3489 17.331 96.6946 18.1993C98.0404 19.0642 99.6954 19.5 101.663 19.5C104.45 19.5 106.873 18.9416 108.932 17.8281C110.958 16.7292 112.284 15.2313 112.905 13.3279V18.8152H118.126V18.6422ZM112.935 13.2348V13.2554L112.929 13.2547L112.935 13.2348ZM101.738 17.2152C104.946 17.2152 107.613 16.6602 109.744 15.5434C111.875 14.4299 112.939 12.9351 112.939 11.059C112.939 10.5891 112.925 10.2384 112.905 10.0034H101.979C97.8807 10.0034 95.8349 11.1986 95.8349 13.5923C95.8349 14.4844 96.1577 15.2165 96.8 15.7919C97.4423 16.3674 98.1763 16.7487 98.9953 16.936C99.8143 17.1233 100.728 17.2186 101.734 17.2186L101.738 17.2152Z" fill="#FCFDFD"/>
</svg>
